<?xml version="1.0" encoding="UTF-8"?>
<svg id="Layer_1" data-name="Layer 1" xmlns="http://www.w3.org/2000/svg" viewBox="0 0 1280 720">
  <g>
    <g>
      <path d="m669.12,348.06s20.73-83.54,31.04-82.11c6.43.89,5.83-.14,58.26-.04,8.87.02,12.73-.03,26.79,0,23.85.05,35.87.08,40.34.42,31.09,2.37,44.56,9.95,48.02,11.75,16.04,8.31,23.65,21.7,24.13,39.75.53,20.08-2.22,39.44-12.88,56.7-12.66,20.49-32.52,29.93-55.55,34.06-25.42,4.56-47.31,6.1-76.47,4.49-13.18-.73-19.76-1.09-24.73-2.52-34.55-9.91-51.03-45.47-58.93-62.51Zm99.88-26.73q-15.9-.07-19.42,15.14c-.86,3.74-1.69,7.49-2.5,11.25-2.54,11.78-2.37,11.99,9.56,11.96,3.07,0,6.14.19,9.2.06,19.59-.85,24.84-4.67,28.73-20.8,2.42-10.03-2.63-16.96-13.03-17.58-4.17-.25-8.37-.04-12.55-.04Z"/>
      <polygon points="659.92 265.91 757.78 265.91 726 460.58 626.19 460.58 659.92 265.91"/>
    </g>
    <g>
      <polygon points="122.64 265.91 220.5 265.91 188.71 460.58 88.91 460.58 122.64 265.91"/>
      <polygon points="272.16 265.91 380.16 265.91 295.87 353.42 358.37 460.58 241.68 460.58 201.01 385.26 208.86 337.21 272.16 265.91"/>
    </g>
    <path d="m1111.3,265.91h-141.26l-110.75,194.66h105.29l12.52-25h77.03l5.16,25h110.51l-58.5-194.66Zm-110.98,116.08l30.44-53.58,14.21,53.58h-44.65Z"/>
    <path d="m618.57,309.66c-11.88-21.07-36.8-31.66-41.58-33.7-4.43-1.89-19.15-7.86-53.73-10.03-29.71-1.86-59.92-2.34-96.34,8.91-30.19,9.32-52.48,26.92-64.15,55.34-8.55,20.81-11.93,42.48-9.8,65.12,2.1,22.37,13.14,38.51,33.34,48.85,18.55,9.49,39.21,12.84,59.73,14.91,29.78,3,59.56,1.62,89.03-4.44,34.15-7.03,62.4-22.12,76.59-54.1,2.09-4.72,9.43-19.8,11.67-41.51,2.13-20.61,3.57-34.56-4.75-49.33Zm-93.88,43.98c-.8,8.1-1.98,20.34-8.02,31.95-8.34,16.03-20.39,17.73-37.9,17.45-10.5-.17-19.61-3.27-24.06-13.46-3.19-7.34-2.57-15.44-1.01-22.48,2.46-11.08,4.51-22.6,11.29-32.53,2.21-3.22,4.66-5.96,8.2-7.54,12.27-5.54,25.28-5.64,37.95-2.56,12.21,2.95,14.55,8.35,13.54,29.18Z"/>
  </g>
  <g>
    <path d="m792.9,503.27h-35.73l-2.15,4.42h29.74l-3.92,7.12h-29.73l-2.54,5.52h35.65l-4.3,8.55h-53.56l17.29-34.16h53.56l-4.3,8.55Z"/>
    <path d="m834.24,494.71l.23,15.23c0,.48-.05,1.1-.15,1.85-.1.75-.15,1.26-.15,1.52,1.43-2.28,3.46-4.67,6.07-7.17,1.49-1.44,3.46-3.33,5.92-5.68,2.46-2.35,4.43-4.27,5.92-5.74h17.83l-35.11,34.16h-17.83l-.54-34.16h17.83Z"/>
    <path d="m940.27,503.27h-35.73l-2.15,4.42h29.74l-3.92,7.12h-29.73l-2.54,5.52h35.65l-4.3,8.55h-53.56l17.29-34.16h53.56l-4.3,8.55Z"/>
    <path d="m951.49,528.87l17.29-34.16h17.9l9.14,17.11,8.68-17.11h17.83l-17.29,34.16h-17.9l-9.14-17.05-8.68,17.05h-17.83Z"/>
    <path d="m1074.12,503.27l-12.98,25.61h-17.83l12.99-25.61h-17.83l4.3-8.55c22.44,0,39.26.02,50.48.06l-4.3,8.55-14.83-.06Z"/>
    <path d="m1165.17,503.27h-35.73l-2.15,4.25h27.2c2.05,0,3.67.61,4.88,1.82,1.2,1.21,1.45,2.52.73,3.92l-5.07,10.04c-.87,1.73-2.32,3.09-4.34,4.08-2.02.99-4.32,1.49-6.88,1.49h-45.18l4.3-8.55h35.73l2.15-4.25h-27.2c-2.05,0-3.68-.61-4.88-1.82-1.2-1.21-1.45-2.52-.73-3.92l5.07-9.99c.87-1.73,2.32-3.1,4.34-4.11,2.02-1.01,4.32-1.52,6.88-1.52h45.18l-4.3,8.55Z"/>
  </g>
  <rect x="89.94" y="506.02" width="618.57" height="11.9" transform="translate(798.45 1023.93) rotate(-180)"/>
  <path d="m1151.7,194.43l4.13,11.92c3.26,9.4,10.65,16.79,20.05,20.05l11.92,4.13c4.4,1.53,4.4,7.75,0,9.27l-11.92,4.13c-9.4,3.26-16.79,10.65-20.05,20.05l-4.13,11.92c-1.53,4.4-7.75,4.4-9.27,0l-4.13-11.92c-3.26-9.4-10.65-16.79-20.05-20.05l-11.92-4.13c-4.4-1.53-4.4-7.75,0-9.27l11.92-4.13c9.4-3.26,16.79-10.65,20.05-20.05l4.13-11.92c1.52-4.4,7.75-4.4,9.27,0Z"/>
</svg>