<?xml version="1.0" encoding="UTF-8"?>
<svg id="Layer_1" data-name="Layer 1" xmlns="http://www.w3.org/2000/svg" viewBox="0 0 1080 1080">
  <defs>
    <style>
      .cls-1 {
        fill: #ffca00;
      }

      .cls-2 {
        fill: #141e37;
        font-family: Cubano-Regular, Cubano;
        font-size: 81.26px;
      }
    </style>
  </defs>
  <path class="cls-1" d="m555.4,405.07l13.73,39.59c10.83,31.23,35.37,55.77,66.6,66.6l39.59,13.73c14.61,5.07,14.61,25.73,0,30.8l-39.59,13.73c-31.23,10.83-55.77,35.37-66.6,66.6l-13.73,39.59c-5.07,14.61-25.73,14.61-30.8,0l-13.73-39.59c-10.83-31.23-35.37-55.77-66.6-66.6l-39.59-13.73c-14.61-5.07-14.61-25.73,0-30.8l39.59-13.73c31.23-10.83,55.77-35.37,66.6-66.6l13.73-39.59c5.06-14.61,25.73-14.61,30.8,0Z"/>
  <text class="cls-2" transform="translate(295.67 625.05) rotate(-104)"><tspan x="0" y="0">S</tspan></text>
  <text class="cls-2" transform="translate(284.5 580.25) rotate(-93.77)"><tspan x="0" y="0">p</tspan></text>
  <text class="cls-2" transform="translate(281.43 535) rotate(-83.51)"><tspan x="0" y="0">o</tspan></text>
  <text class="cls-2" transform="translate(286.66 488.34) rotate(-73.04)"><tspan x="0" y="0">r</tspan></text>
  <text class="cls-2" transform="translate(299.99 444.04) rotate(-62.84)"><tspan x="0" y="0">t</tspan></text>
  <text class="cls-2" transform="translate(322.73 401.56) rotate(-54.76)"><tspan x="0" y="0"> </tspan></text>
  <text class="cls-2" transform="translate(337.39 381.07) rotate(-49.7)"><tspan x="0" y="0">.</tspan></text>
  <text class="cls-2" transform="translate(350.33 365.69) rotate(-44.63)"><tspan x="0" y="0"> </tspan></text>
  <text class="cls-2" transform="translate(367.31 347.88) rotate(-36.67)"><tspan x="0" y="0">S</tspan></text>
  <text class="cls-2" transform="translate(404.36 320.31) rotate(-26.57)"><tspan x="0" y="0">f</tspan></text>
  <text class="cls-2" transform="translate(444.11 300.31) rotate(-16.81)"><tspan x="0" y="0">e</tspan></text>
  <text class="cls-2" transform="translate(487.17 287.28) rotate(-6.76)"><tspan x="0" y="0">e</tspan></text>
  <text class="cls-2" transform="translate(531.79 281.83) rotate(3.58)"><tspan x="0" y="0">r</tspan></text>
  <text class="cls-2" transform="translate(579.91 285.69) rotate(11.65)"><tspan x="0" y="0"> </tspan></text>
  <text class="cls-2" transform="translate(604.57 290.93) rotate(16.66)"><tspan x="0" y="0">.</tspan></text>
  <text class="cls-2" transform="translate(623.85 296.62) rotate(21.67)"><tspan x="0" y="0"> </tspan></text>
  <text class="cls-2" transform="translate(646.99 305.06) rotate(29.44)"><tspan x="0" y="0">C</tspan></text>
  <text class="cls-2" transform="translate(686.4 327.17) rotate(39.7)"><tspan x="0" y="0">o</tspan></text>
  <text class="cls-2" transform="translate(722.61 356.93) rotate(50.62)"><tspan x="0" y="0">n</tspan></text>
  <text class="cls-2" transform="translate(754.73 396.16) rotate(61.57)"><tspan x="0" y="0">n</tspan></text>
  <text class="cls-2" transform="translate(778.74 441.25) rotate(72.4)"><tspan x="0" y="0">e</tspan></text>
  <text class="cls-2" transform="translate(792.37 484.1) rotate(82.48)"><tspan x="0" y="0">c</tspan></text>
  <text class="cls-2" transform="translate(798.43 528.88) rotate(92.84)"><tspan x="0" y="0">t</tspan></text>
  <text class="cls-2" transform="translate(795.13 577.02) rotate(100.65)"><tspan x="0" y="0">i</tspan></text>
  <text class="cls-2" transform="translate(791.75 599.03) rotate(108.13)"><tspan x="0" y="0">e</tspan></text>
  <text class="cls-2" transform="translate(776.93 641.99) rotate(115.88)"><tspan x="0" y="0"> </tspan></text>
  <text class="cls-2" transform="translate(765.67 664.67) rotate(120.41)"><tspan x="0" y="0">|</tspan></text>
  <text class="cls-2" transform="translate(757.92 678.18) rotate(124.97)"><tspan x="0" y="0"> </tspan></text>
  <text class="cls-2" transform="translate(744.64 698.83) rotate(133.36)"><tspan x="0" y="0">k</tspan></text>
  <text class="cls-2" transform="translate(713.02 732.65) rotate(143.33)"><tspan x="0" y="0">o</tspan></text>
  <text class="cls-2" transform="translate(675.32 760.65) rotate(153.48)"><tspan x="0" y="0">p</tspan></text>
  <text class="cls-2" transform="translate(634.72 781.02) rotate(163.68)"><tspan x="0" y="0">a</tspan></text>
  <text class="cls-2" transform="translate(589.18 793.51) rotate(171.71)"><tspan x="0" y="0"> </tspan></text>
  <text class="cls-2" transform="translate(564.92 797.75) rotate(179.54)"><tspan x="0" y="0">e</tspan></text>
  <text class="cls-2" transform="translate(519.93 798.22) rotate(-170.28)"><tspan x="0" y="0">v</tspan></text>
  <text class="cls-2" transform="translate(473.79 790.25) rotate(-160.15)"><tspan x="0" y="0">e</tspan></text>
  <text class="cls-2" transform="translate(431.45 775.31) rotate(-149.56)"><tspan x="0" y="0">n</tspan></text>
  <text class="cls-2" transform="translate(387.63 749.43) rotate(-138.59)"><tspan x="0" y="0">t</tspan></text>
  <text class="cls-2" transform="translate(353.45 719.51) rotate(-128.62)"><tspan x="0" y="0">s</tspan></text>
  <text class="cls-2" transform="translate(324.98 682.62) rotate(-120.72)"><tspan x="0" y="0"> </tspan></text>
  <text class="cls-2" transform="translate(312.24 660.74) rotate(-116.25)"><tspan x="0" y="0">|</tspan></text>
</svg>