<?xml version="1.0" encoding="UTF-8"?>
<svg id="Layer_1" data-name="Layer 1" xmlns="http://www.w3.org/2000/svg" viewBox="0 0 1080 1080">
  <defs>
    <style>
      .cls-1 {
        fill: #111e39;
      }
    </style>
  </defs>
  <g>
    <g>
      <path class="cls-1" d="m159.46,736.4s28.36-114.3,42.47-112.34c8.8,1.22,7.98-.19,79.71-.05,12.13.02,17.42-.04,36.65,0,32.63.07,49.08.11,55.2.58,42.54,3.24,60.97,13.62,65.7,16.07,21.94,11.38,32.35,29.7,33.01,54.39.73,27.47-3.04,53.96-17.62,77.58-17.32,28.04-44.49,40.95-76.01,46.6-34.78,6.24-64.73,8.35-104.63,6.15-18.03-1-27.04-1.49-33.84-3.44-47.27-13.56-69.83-62.21-80.63-85.52Zm136.65-36.57q-21.76-.1-26.56,20.72c-1.18,5.12-2.31,10.25-3.41,15.39-3.48,16.12-3.24,16.4,13.08,16.37,4.2,0,8.4.27,12.59.08,26.8-1.16,33.98-6.39,39.3-28.45,3.31-13.73-3.61-23.21-17.82-24.05-5.71-.34-11.45-.06-17.17-.06Z"/>
      <polygon class="cls-1" points="146.87 624.01 280.76 624.01 237.28 890.34 100.73 890.34 146.87 624.01"/>
    </g>
    <g>
      <polygon class="cls-1" points="144.79 318.58 278.69 318.58 235.2 584.91 98.65 584.91 144.79 318.58"/>
      <polygon class="cls-1" points="349.37 318.58 497.14 318.58 381.81 438.31 467.33 584.91 307.67 584.91 252.03 481.87 262.76 416.12 349.37 318.58"/>
    </g>
    <path class="cls-1" d="m748.67,624.01h-193.27l-151.53,266.33h144.06l17.13-34.21h105.39l7.06,34.21h151.2l-80.05-266.33Zm-151.84,158.82l41.65-73.3,19.44,73.3h-61.09Z"/>
    <path class="cls-1" d="m823.33,378.43c-16.25-28.83-50.35-43.32-56.88-46.11-6.06-2.59-26.2-10.75-73.52-13.72-40.65-2.55-81.99-3.2-131.82,12.19-41.31,12.75-71.8,36.84-87.77,75.71-11.69,28.47-16.32,58.12-13.41,89.09,2.88,30.61,17.98,52.69,45.62,66.83,25.38,12.99,53.65,17.57,81.72,20.4,40.75,4.1,81.49,2.22,121.81-6.08,46.72-9.62,85.38-30.26,104.79-74.02,2.87-6.46,12.9-27.09,15.97-56.8,2.92-28.2,4.89-47.29-6.5-67.5Zm-128.45,60.18c-1.09,11.08-2.71,27.83-10.97,43.71-11.41,21.93-27.9,24.26-51.86,23.87-14.36-.23-26.84-4.47-32.92-18.41-4.36-10.05-3.51-21.13-1.38-30.76,3.37-15.16,6.18-30.92,15.45-44.51,3.03-4.4,6.37-8.16,11.21-10.32,16.78-7.58,34.59-7.72,51.93-3.5,16.71,4.03,19.91,11.43,18.53,39.93Z"/>
  </g>
  <path class="cls-1" d="m888.96,197.39l9.69,27.95c7.64,22.04,24.97,39.37,47.01,47.01l27.95,9.69c10.31,3.58,10.31,18.17,0,21.75l-27.95,9.69c-22.04,7.64-39.37,24.97-47.01,47.01l-9.69,27.95c-3.58,10.31-18.17,10.31-21.75,0l-9.69-27.95c-7.64-22.04-24.97-39.37-47.01-47.01l-27.95-9.69c-10.31-3.58-10.31-18.17,0-21.75l27.95-9.69c22.04-7.64,39.37-24.97,47.01-47.01l9.69-27.95c3.57-10.31,18.17-10.31,21.75,0Z"/>
</svg>