<?xml version="1.0" encoding="UTF-8"?>
<svg id="Layer_1" data-name="Layer 1" xmlns="http://www.w3.org/2000/svg" viewBox="0 0 1080 1080">
  <defs>
    <style>
      .cls-1 {
        fill: #f4f0ea;
      }

      .cls-2 {
        fill: #e81e25;
      }
    </style>
  </defs>
  <g>
    <path class="cls-2" d="m940.98,369.03c-31.38-77.22-101.44-101.61-171.73-123.5-39.12-12.25-80.58-14.31-121.82-17.23-100.79-7.15-199.69-2.66-296.74,28.67-92.99,30.02-161.65,86.65-197.57,178.07-26.34,66.98-36.74,136.72-30.18,209.55,6.45,71.96,40.48,123.93,102.69,157.15,57.12,30.56,120.73,41.35,183.92,48.01,91.74,9.65,183.43,5.2,274.2-14.31,105.18-22.65,192.21-71.2,235.89-174.11,25.2-59.34,40.26-122.85,38.64-194.16,3.03-30.51-3.79-64.87-17.29-98.14Zm-293.54,141.81c-2.44,26.06-6.07,65.46-24.55,102.8-25.52,51.59-62.43,57.06-116.02,56.14-32.13-.54-60.04-10.51-73.64-43.3-9.75-23.63-7.86-49.69-3.09-72.34,7.53-35.66,13.82-72.72,34.57-104.69,6.77-10.35,14.25-19.18,25.09-24.28,37.55-17.83,77.38-18.15,116.18-8.24,37.39,9.48,44.54,26.88,41.45,93.91Z"/>
    <ellipse class="cls-2" cx="539.07" cy="525.91" rx="214.05" ry="189.66"/>
  </g>
  <g>
    <g>
      <g>
        <path class="cls-1" d="m335.95,645.82s16.73-67.42,25.05-66.27c5.19.72,4.71-.11,47.02-.03,7.16.01,10.27-.02,21.62,0,19.25.04,28.95.06,32.56.34,25.09,1.91,35.97,8.03,38.75,9.48,12.94,6.71,19.09,17.52,19.47,32.09.43,16.21-1.79,31.83-10.4,45.76-10.22,16.54-26.25,24.16-44.84,27.49-20.52,3.68-38.18,4.93-61.72,3.63-10.63-.59-15.95-.88-19.96-2.03-27.88-8-41.19-36.7-47.57-50.45Zm80.61-21.58q-12.84-.06-15.67,12.22c-.7,3.02-1.36,6.05-2.01,9.08-2.05,9.51-1.91,9.68,7.71,9.65,2.48,0,4.96.16,7.43.05,15.81-.68,20.04-3.77,23.18-16.79,1.95-8.1-2.13-13.69-10.51-14.19-3.37-.2-6.75-.03-10.13-.03Z"/>
        <polygon class="cls-1" points="328.52 579.52 407.51 579.52 381.85 736.63 301.3 736.63 328.52 579.52"/>
      </g>
      <g>
        <polygon class="cls-1" points="327.3 399.35 406.28 399.35 380.63 556.46 300.08 556.46 327.3 399.35"/>
        <polygon class="cls-1" points="447.98 399.35 535.15 399.35 467.11 469.98 517.56 556.46 423.38 556.46 390.55 495.67 396.89 456.89 447.98 399.35"/>
      </g>
      <path class="cls-1" d="m683.52,579.52h-114.01l-89.39,157.11h84.98l10.11-20.18h62.17l4.16,20.18h89.19l-47.22-157.11Zm-89.57,93.69l24.57-43.24,11.47,43.24h-36.03Z"/>
      <path class="cls-1" d="m727.57,434.66c-9.59-17.01-29.7-25.55-33.56-27.2-3.57-1.53-15.46-6.34-43.37-8.09-23.98-1.5-48.36-1.89-77.76,7.19-24.37,7.52-42.35,21.73-51.77,44.66-6.9,16.79-9.63,34.29-7.91,52.55,1.7,18.06,10.61,31.08,26.91,39.42,14.97,7.66,31.65,10.37,48.2,12.03,24.04,2.42,48.07,1.31,71.86-3.59,27.56-5.67,50.37-17.85,61.81-43.66,1.69-3.81,7.61-15.98,9.42-33.5,1.72-16.63,2.88-27.89-3.84-39.82Zm-75.77,35.5c-.64,6.54-1.6,16.42-6.47,25.78-6.73,12.94-16.46,14.31-30.59,14.08-8.47-.14-15.83-2.64-19.42-10.86-2.57-5.93-2.07-12.46-.81-18.14,1.99-8.94,3.64-18.24,9.12-26.26,1.79-2.6,3.76-4.81,6.62-6.09,9.9-4.47,20.4-4.55,30.63-2.07,9.86,2.38,11.74,6.74,10.93,23.55Z"/>
    </g>
    <path class="cls-1" d="m766.28,327.86l5.72,16.49c4.51,13,14.73,23.22,27.73,27.73l16.49,5.72c6.08,2.11,6.08,10.72,0,12.83l-16.49,5.72c-13,4.51-23.22,14.73-27.73,27.73l-5.72,16.49c-2.11,6.08-10.72,6.08-12.83,0l-5.72-16.49c-4.51-13-14.73-23.22-27.73-27.73l-16.49-5.72c-6.08-2.11-6.08-10.72,0-12.83l16.49-5.72c13-4.51,23.22-14.73,27.73-27.73l5.72-16.49c2.11-6.08,10.72-6.08,12.83,0Z"/>
  </g>
</svg>